<?xml version="1.0" encoding="utf-8"?>
<svg xmlns="http://www.w3.org/2000/svg" xmlns:xlink="http://www.w3.org/1999/xlink" style="margin: auto; background: none; display: block; shape-rendering: auto;" width="264px" height="264px" viewBox="0 0 100 100" preserveAspectRatio="xMidYMid">
<g transform="rotate(0 50 50)">
  <rect x="49" y="21.5" rx="1" ry="5.5" width="2" height="11" fill="#60a363">
    <animate attributeName="opacity" values="1;0" keyTimes="0;1" dur="2.8571428571428568s" begin="-2.747252747252747s" repeatCount="indefinite"></animate>
  </rect>
</g><g transform="rotate(13.846153846153847 50 50)">
  <rect x="49" y="21.5" rx="1" ry="5.5" width="2" height="11" fill="#60a363">
    <animate attributeName="opacity" values="1;0" keyTimes="0;1" dur="2.8571428571428568s" begin="-2.637362637362637s" repeatCount="indefinite"></animate>
  </rect>
</g><g transform="rotate(27.692307692307693 50 50)">
  <rect x="49" y="21.5" rx="1" ry="5.5" width="2" height="11" fill="#60a363">
    <animate attributeName="opacity" values="1;0" keyTimes="0;1" dur="2.8571428571428568s" begin="-2.527472527472527s" repeatCount="indefinite"></animate>
  </rect>
</g><g transform="rotate(41.53846153846154 50 50)">
  <rect x="49" y="21.5" rx="1" ry="5.5" width="2" height="11" fill="#60a363">
    <animate attributeName="opacity" values="1;0" keyTimes="0;1" dur="2.8571428571428568s" begin="-2.417582417582417s" repeatCount="indefinite"></animate>
  </rect>
</g><g transform="rotate(55.38461538461539 50 50)">
  <rect x="49" y="21.5" rx="1" ry="5.5" width="2" height="11" fill="#60a363">
    <animate attributeName="opacity" values="1;0" keyTimes="0;1" dur="2.8571428571428568s" begin="-2.3076923076923075s" repeatCount="indefinite"></animate>
  </rect>
</g><g transform="rotate(69.23076923076923 50 50)">
  <rect x="49" y="21.5" rx="1" ry="5.5" width="2" height="11" fill="#60a363">
    <animate attributeName="opacity" values="1;0" keyTimes="0;1" dur="2.8571428571428568s" begin="-2.1978021978021975s" repeatCount="indefinite"></animate>
  </rect>
</g><g transform="rotate(83.07692307692308 50 50)">
  <rect x="49" y="21.5" rx="1" ry="5.5" width="2" height="11" fill="#60a363">
    <animate attributeName="opacity" values="1;0" keyTimes="0;1" dur="2.8571428571428568s" begin="-2.0879120879120876s" repeatCount="indefinite"></animate>
  </rect>
</g><g transform="rotate(96.92307692307692 50 50)">
  <rect x="49" y="21.5" rx="1" ry="5.5" width="2" height="11" fill="#60a363">
    <animate attributeName="opacity" values="1;0" keyTimes="0;1" dur="2.8571428571428568s" begin="-1.9780219780219777s" repeatCount="indefinite"></animate>
  </rect>
</g><g transform="rotate(110.76923076923077 50 50)">
  <rect x="49" y="21.5" rx="1" ry="5.5" width="2" height="11" fill="#60a363">
    <animate attributeName="opacity" values="1;0" keyTimes="0;1" dur="2.8571428571428568s" begin="-1.868131868131868s" repeatCount="indefinite"></animate>
  </rect>
</g><g transform="rotate(124.61538461538461 50 50)">
  <rect x="49" y="21.5" rx="1" ry="5.5" width="2" height="11" fill="#60a363">
    <animate attributeName="opacity" values="1;0" keyTimes="0;1" dur="2.8571428571428568s" begin="-1.758241758241758s" repeatCount="indefinite"></animate>
  </rect>
</g><g transform="rotate(138.46153846153845 50 50)">
  <rect x="49" y="21.5" rx="1" ry="5.5" width="2" height="11" fill="#60a363">
    <animate attributeName="opacity" values="1;0" keyTimes="0;1" dur="2.8571428571428568s" begin="-1.648351648351648s" repeatCount="indefinite"></animate>
  </rect>
</g><g transform="rotate(152.30769230769232 50 50)">
  <rect x="49" y="21.5" rx="1" ry="5.5" width="2" height="11" fill="#60a363">
    <animate attributeName="opacity" values="1;0" keyTimes="0;1" dur="2.8571428571428568s" begin="-1.5384615384615383s" repeatCount="indefinite"></animate>
  </rect>
</g><g transform="rotate(166.15384615384616 50 50)">
  <rect x="49" y="21.5" rx="1" ry="5.5" width="2" height="11" fill="#60a363">
    <animate attributeName="opacity" values="1;0" keyTimes="0;1" dur="2.8571428571428568s" begin="-1.4285714285714284s" repeatCount="indefinite"></animate>
  </rect>
</g><g transform="rotate(180 50 50)">
  <rect x="49" y="21.5" rx="1" ry="5.5" width="2" height="11" fill="#60a363">
    <animate attributeName="opacity" values="1;0" keyTimes="0;1" dur="2.8571428571428568s" begin="-1.3186813186813184s" repeatCount="indefinite"></animate>
  </rect>
</g><g transform="rotate(193.84615384615384 50 50)">
  <rect x="49" y="21.5" rx="1" ry="5.5" width="2" height="11" fill="#60a363">
    <animate attributeName="opacity" values="1;0" keyTimes="0;1" dur="2.8571428571428568s" begin="-1.2087912087912085s" repeatCount="indefinite"></animate>
  </rect>
</g><g transform="rotate(207.69230769230768 50 50)">
  <rect x="49" y="21.5" rx="1" ry="5.5" width="2" height="11" fill="#60a363">
    <animate attributeName="opacity" values="1;0" keyTimes="0;1" dur="2.8571428571428568s" begin="-1.0989010989010988s" repeatCount="indefinite"></animate>
  </rect>
</g><g transform="rotate(221.53846153846155 50 50)">
  <rect x="49" y="21.5" rx="1" ry="5.5" width="2" height="11" fill="#60a363">
    <animate attributeName="opacity" values="1;0" keyTimes="0;1" dur="2.8571428571428568s" begin="-0.9890109890109888s" repeatCount="indefinite"></animate>
  </rect>
</g><g transform="rotate(235.3846153846154 50 50)">
  <rect x="49" y="21.5" rx="1" ry="5.5" width="2" height="11" fill="#60a363">
    <animate attributeName="opacity" values="1;0" keyTimes="0;1" dur="2.8571428571428568s" begin="-0.879120879120879s" repeatCount="indefinite"></animate>
  </rect>
</g><g transform="rotate(249.23076923076923 50 50)">
  <rect x="49" y="21.5" rx="1" ry="5.5" width="2" height="11" fill="#60a363">
    <animate attributeName="opacity" values="1;0" keyTimes="0;1" dur="2.8571428571428568s" begin="-0.7692307692307692s" repeatCount="indefinite"></animate>
  </rect>
</g><g transform="rotate(263.0769230769231 50 50)">
  <rect x="49" y="21.5" rx="1" ry="5.5" width="2" height="11" fill="#60a363">
    <animate attributeName="opacity" values="1;0" keyTimes="0;1" dur="2.8571428571428568s" begin="-0.6593406593406592s" repeatCount="indefinite"></animate>
  </rect>
</g><g transform="rotate(276.9230769230769 50 50)">
  <rect x="49" y="21.5" rx="1" ry="5.5" width="2" height="11" fill="#60a363">
    <animate attributeName="opacity" values="1;0" keyTimes="0;1" dur="2.8571428571428568s" begin="-0.5494505494505494s" repeatCount="indefinite"></animate>
  </rect>
</g><g transform="rotate(290.7692307692308 50 50)">
  <rect x="49" y="21.5" rx="1" ry="5.5" width="2" height="11" fill="#60a363">
    <animate attributeName="opacity" values="1;0" keyTimes="0;1" dur="2.8571428571428568s" begin="-0.4395604395604395s" repeatCount="indefinite"></animate>
  </rect>
</g><g transform="rotate(304.61538461538464 50 50)">
  <rect x="49" y="21.5" rx="1" ry="5.5" width="2" height="11" fill="#60a363">
    <animate attributeName="opacity" values="1;0" keyTimes="0;1" dur="2.8571428571428568s" begin="-0.3296703296703296s" repeatCount="indefinite"></animate>
  </rect>
</g><g transform="rotate(318.46153846153845 50 50)">
  <rect x="49" y="21.5" rx="1" ry="5.5" width="2" height="11" fill="#60a363">
    <animate attributeName="opacity" values="1;0" keyTimes="0;1" dur="2.8571428571428568s" begin="-0.21978021978021975s" repeatCount="indefinite"></animate>
  </rect>
</g><g transform="rotate(332.3076923076923 50 50)">
  <rect x="49" y="21.5" rx="1" ry="5.5" width="2" height="11" fill="#60a363">
    <animate attributeName="opacity" values="1;0" keyTimes="0;1" dur="2.8571428571428568s" begin="-0.10989010989010987s" repeatCount="indefinite"></animate>
  </rect>
</g><g transform="rotate(346.15384615384613 50 50)">
  <rect x="49" y="21.5" rx="1" ry="5.5" width="2" height="11" fill="#60a363">
    <animate attributeName="opacity" values="1;0" keyTimes="0;1" dur="2.8571428571428568s" begin="0s" repeatCount="indefinite"></animate>
  </rect>
</g>
<!-- [ldio] generated by https://loading.io/ --></svg>